<svg xmlns="http://www.w3.org/2000/svg" xmlns:xlink="http://www.w3.org/1999/xlink" width="841" height="594" viewBox="0 0 841 594"><defs><linearGradient id="a" x1="0.5" x2="0.5" y2="1" gradientUnits="objectBoundingBox"><stop offset="0" stop-color="#5d16c9"/><stop offset="1" stop-color="gray"/></linearGradient><linearGradient id="b" x1="0.5" x2="0.5" y2="1" gradientUnits="objectBoundingBox"><stop offset="0" stop-color="#575757"/><stop offset="1" stop-color="#111"/></linearGradient></defs><g transform="translate(-939 -244)"><g transform="translate(939 314)" fill="rgba(0,0,0,0)" stroke="#707070" stroke-width="3" opacity="0.18"><rect width="812" height="524" rx="52" stroke="none"/><rect x="1.5" y="1.5" width="809" height="521" rx="50.5" fill="none"/></g><g transform="translate(952 278)" fill="rgba(0,0,0,0)" stroke="#707070" stroke-width="3" opacity="0.3"><rect width="812" height="524" rx="52" stroke="none"/><rect x="1.5" y="1.5" width="809" height="521" rx="50.5" fill="none"/></g><g transform="translate(968 244)" stroke="#707070" stroke-width="1"><rect width="812" height="524" rx="52" stroke="none"/><rect x="0.5" y="0.5" width="811" height="523" rx="51.5" fill="none"/></g><line y1="1" x2="600" transform="translate(1058 371.5)" fill="none" stroke="#707070" stroke-width="1"/><text transform="translate(1045 342)" fill="#fff" font-size="40" font-family="SegoeUI, Segoe UI"><tspan x="-44.629" y="0">Logo</tspan></text><g transform="translate(-35 15)"><text transform="translate(1205 317)" fill="#fff" font-size="15" font-family="SegoeUI, Segoe UI" letter-spacing="0.03em" opacity="0.43"><tspan x="-20.776" y="16">Home</tspan></text><text transform="translate(1282 317)" fill="#fff" font-size="15" font-family="SegoeUI, Segoe UI" letter-spacing="0.03em"><tspan x="-21.327" y="16">About</tspan></text><text transform="translate(1359 317)" fill="#fff" font-size="15" font-family="SegoeUI, Segoe UI" letter-spacing="0.03em"><tspan x="-16.911" y="16">Price</tspan></text><text transform="translate(1436 317)" fill="#fff" font-size="15" font-family="SegoeUI, Segoe UI" letter-spacing="0.03em"><tspan x="-26.996" y="16">Contact</tspan></text></g><g transform="translate(1571 314)" stroke="#707070" stroke-width="1" fill="url(#a)"><rect width="119" height="43" rx="21.5" stroke="none"/><rect x="0.5" y="0.5" width="118" height="42" rx="21" fill="none"/></g><g transform="translate(1520 318)" fill="#5d16c9" stroke="#707070" stroke-width="1"><rect width="34" height="36" rx="17" stroke="none"/><rect x="0.5" y="0.5" width="33" height="35" rx="16.5" fill="none"/></g><g transform="translate(1058 421)" stroke="#707070" stroke-width="1" fill="url(#b)"><rect width="186" height="238" rx="32" stroke="none"/><rect x="0.5" y="0.5" width="185" height="237" rx="31.5" fill="none"/></g><g transform="translate(1273 429)" stroke="#707070" stroke-width="1" fill="url(#b)"><rect width="385" height="143" rx="25" stroke="none"/><rect x="0.5" y="0.5" width="384" height="142" rx="24.5" fill="none"/></g><g transform="translate(1273 584)" stroke="#707070" stroke-width="1" fill="url(#b)"><rect width="385" height="75" rx="21" stroke="none"/><rect x="0.5" y="0.5" width="384" height="74" rx="20.5" fill="none"/></g></g></svg>