<svg xmlns="http://www.w3.org/2000/svg" xmlns:xlink="http://www.w3.org/1999/xlink" width="2913.478" height="2908.5" viewBox="0 0 2913.478 2908.5">
  <defs>
    <linearGradient id="linear-gradient" x1="-0.331" y1="0.107" x2="0.048" y2="2.364" gradientUnits="objectBoundingBox">
      <stop offset="0" stop-color="#ff9085"/>
      <stop offset="1" stop-color="#fb6fbb"/>
    </linearGradient>
    <clipPath id="clip-path">
      <path id="Path_8" data-name="Path 8" d="M2161.93,2509.18c-13.816,164.26-21.108,331.978-34.127,497.47-89.548,28.782-195.584,60.458-242.073-47.039-64.633-149.454-349.606-146.134-478.243-119.273-159.214,33.246-510.032,73.123-489.785-165.185,16.856-198.39,105.906-313.947-127.625-382.108S436.834,2084.3,487.825,1867.521c53.66-228.125-211.53-458.055-44.72-634.8,290.66-307.972,688.244,225.589,741.734,556.177s214.877,218.578,439.109,233.568c306.125,20.463,124.676,341.154,259.536,443.672C1989.2,2546.5,2049.86,2513.09,2161.93,2509.18Z" opacity="0.5"/>
    </clipPath>
    <clipPath id="clip-path-2">
      <path id="Path_10" data-name="Path 10" d="M1472.54,3048.93q174.681-13.6,349.461-35.17c1.755,1.819,56.693-246.2-53.354-385.777-217.976-270.716-43.784-488.376,10.709-620.683,85.45-185.979,64.228-420.582-149.041-391.5-207.437,23.416-209.656-400.495-152.061-723.009,41-156.083-95.086-358.179-240.992-412.22C1088.574,421.581,930.07,510.648,862.011,822.7c-95.352,360.174,155.954,598.5,242.067,788.245,84.76,186.279-150.953,316.176,19.875,487.776,143.174,151.886,328.86,266.735,246.233,439.563C1285.76,2708.97,1293.27,2853.75,1472.54,3048.93Z"/>
    </clipPath>
    <linearGradient id="linear-gradient-2" x1="4.685" y1="0.722" x2="3.853" y2="1.634" gradientUnits="objectBoundingBox">
      <stop offset="0" stop-color="#ffc444"/>
      <stop offset="0.996" stop-color="#f36f56"/>
    </linearGradient>
    <linearGradient id="linear-gradient-3" y1="0.5" x2="1" y2="0.5" gradientUnits="objectBoundingBox">
      <stop offset="0" stop-color="#444b8c"/>
      <stop offset="0.996" stop-color="#26264f"/>
    </linearGradient>
    <clipPath id="clip-path-4">
      <path id="Path_35" data-name="Path 35" d="M2242.21,2910.9l-1585.947,111c-27.65,1.73-72.214-21.968-72.214-48.237V1844.97c0-26.27,22.469-47.654,44.194-911.241L2447.833,922.3c456.147-52.958,823.092,321.241,537.047,808.475l-37.316,1028.04C2444.44,2885.38,2265.3,2909.46,2242.21,2910.9Z"/>
    </clipPath>
    <linearGradient id="linear-gradient-5" x1="0.647" y1="-0.692" x2="-0.217" y2="4.125" gradientUnits="objectBoundingBox">
      <stop offset="0" stop-color="#ab316d"/>
      <stop offset="1" stop-color="#792d3d"/>
    </linearGradient>
    <linearGradient id="linear-gradient-6" x1="0.544" y1="0.472" x2="0.018" y2="1.63" gradientUnits="objectBoundingBox">
      <stop offset="0" stop-color="#aa80f9"/>
      <stop offset="0.996" stop-color="#6165d7"/>
    </linearGradient>
    <linearGradient id="linear-gradient-7" x1="-3.045" y1="0.68" x2="-3.494" y2="1.331" xlink:href="#linear-gradient-6"/>
    <linearGradient id="linear-gradient-8" x1="0.464" y1="1.117" x2="0.569" y2="-0.044" xlink:href="#linear-gradient-5"/>
    <linearGradient id="linear-gradient-9" x1="0.619" y1="0.855" x2="0.36" y2="0.065" xlink:href="#linear-gradient-5"/>
    <linearGradient id="linear-gradient-10" x1="-7.436" y1="-0.295" x2="-7.991" y2="0.784" xlink:href="#linear-gradient-3"/>
    <linearGradient id="linear-gradient-11" x1="-8.764" y1="1.234" x2="-5.947" y2="-1.082" xlink:href="#linear-gradient-6"/>
    <linearGradient id="linear-gradient-12" x1="-4.1" y1="0.888" x2="-4.934" y2="1.603" xlink:href="#linear-gradient-6"/>
    <linearGradient id="linear-gradient-13" x1="-2.785" y1="0.15" x2="-3.559" y2="2.372" xlink:href="#linear-gradient-6"/>
    <linearGradient id="linear-gradient-14" x1="-1.731" y1="-0.133" x2="-1.369" y2="0.853" xlink:href="#linear-gradient"/>
    <linearGradient id="linear-gradient-15" x1="-5.13" y1="-1.041" x2="-4.186" y2="2.182" xlink:href="#linear-gradient"/>
  </defs>
  <g id="_12083620_Wavy_Bus-27_Single-06" data-name="12083620_Wavy_Bus-27_Single-06" transform="translate(-476.453 -400.75)">
    <g id="Illustration" transform="translate(119 -20.929)">
      <g id="Group_21" data-name="Group 21">
        <path id="Path_1" data-name="Path 1" d="M1046.94,596.492c-96.33,140.423,16.619,368.081-126.318,473.691-139.138,102.8-310.065-65.705-441.193,22.787-194.522,131.273-159,731.953,125.4,1105.17,85.529,112.238,156.994,155.909,188.645,282.845,67.964,272.565-170.9,434.7-125.442,569.509,102.349,303.533,1676.39,558.234,2307.97-353.985,294.972-426.044,339.107-1041.26,75.558-1508.51C2575.33,343.671,1263.08,281.409,1046.94,596.492Z" fill="#f4f7fa"/>
        <g id="Group_6" data-name="Group 6">
          <g id="Group_5" data-name="Group 5">
            <path id="Path_2" data-name="Path 2" d="M1931.54,2992.13c22.511-8.266,64.2-46.092,71-60.432,45.262-95.436,141.611-268.613,110.519-375.857-5.31-18.316-92.189-16.706-107.686-31.1-55.64-12.417-75.713-13.274-122.81-51.065-139.042-111.569,49.488-423.184-257.823-447.866-225.1-18.078-386.157,94.634-437.651-236.745s-445.226-867.116-738.03-561.3c-168.042,175.511,95.672,407.358,40.423,635.1-52.5,216.412,66.3,357.778,299.379,427.558S931.967,2474.98,913.9,2673.41c-21.7,238.358,328.7,200.132,488.968,168.685C1531.94,2816.77,1877.65,2839.36,1931.54,2992.13Z" fill="url(#linear-gradient)"/>
            <g id="Group_4" data-name="Group 4" opacity="0.5">
              <g id="Group_3" data-name="Group 3" clip-path="url(#clip-path)">
                <path id="Path_3" data-name="Path 3" d="M2061.36,2747.84l1.128-4.972C1296.55,2568.89,716.829,1959.33,511.74,1112.3l-4.959,1.2c97.2,401.433,286.159,763.1,546.452,1045.9C1326.88,2456.71,1675.49,2660.19,2061.36,2747.84Z" fill="#fcfdfe"/>
                <path id="Path_4" data-name="Path 4" d="M898,2773.36c183.472-111.766,515.48-191.419,740.1-177.553l.313-5.089C1412.912,2576.8,1079.576,2656.78,895.351,2769Z" fill="#fcfdfe"/>
                <path id="Path_5" data-name="Path 5" d="M1911.4,2711.96l2.461-4.467c-102.425-56.51-172.347-162.631-207.821-315.412-26.013-112.026-33.243-246.064-21.489-398.4l-5.085-.39c-11.792,152.852-4.525,287.413,21.6,399.943C1736.88,2547.49,1807.65,2654.72,1911.4,2711.96Z" fill="#fcfdfe"/>
                <path id="Path_6" data-name="Path 6" d="M1017.85,2117.82l2.69-4.333c-187.587-116.449-419.485-105.028-580.994-74.944l.936,5.016C601.1,2013.64,831.652,2002.23,1017.85,2117.82Z" fill="#fcfdfe"/>
                <path id="Path_7" data-name="Path 7" d="M729.424,1702.77l4.869-1.52c-74.1-237.442,15.026-482.851,74.743-608l-4.6-2.2C744.393,1216.88,654.81,1463.67,729.424,1702.77Z" fill="#fcfdfe"/>
              </g>
            </g>
          </g>
        </g>
        <g id="Group_10" data-name="Group 10">
          <g id="Group_9" data-name="Group 9">
            <g id="Group_7" data-name="Group 7" clip-path="url(#clip-path-2)">
              <path id="Path_9" data-name="Path 9" d="M1472.54,3048.93q174.681-13.6,349.461-35.17c1.755,1.819,56.693-246.2-53.354-385.777-217.976-270.716-43.784-488.376,10.709-620.683,84.713-185.888,61.16-395.069-132.817-411.41-214.854-22.341-229.511-381.495-168.286-703.1,41-156.083-95.086-358.179-240.992-412.22C1088.573,421.581,930.069,510.648,862.01,822.7c-95.352,360.174,155.954,598.5,242.067,788.245,84.76,186.279-150.953,316.176,19.875,487.776,143.174,151.886,328.86,266.735,246.233,439.563C1285.76,2708.97,1293.27,2853.75,1472.54,3048.93Z" fill="url(#linear-gradient-2)"/>
            </g>
            <g id="Group_8" data-name="Group 8" opacity="0.5" clip-path="url(#clip-path-2)">
              <path id="Path_11" data-name="Path 11" d="M1631.52,3074.71c.185-2.224-73.874-537.124-228.825-1063.53-20.538-84.84-43.312-170.6-65.331-253.528-122.64-461.844-238.478-898.076-49.751-1361.43l-6.443-2.626c-189.6,465.52-73.477,902.844,49.469,1365.85,22.011,82.894,44.774,168.613,65.338,253.543,155.785,529.258,228.477,1058.16,228.6,1061.42Z" fill="#fff"/>
              <path id="Path_12" data-name="Path 12" d="M1226.22,1329.83l5.475-4.293c-118.726-151.561-259.9-365.094-335.751-479.809-61.385-92.843-61.683-92.834-65.259-92.508l.3,3.464-1.822,2.889c3.478,3.023,28.855,41.4,60.98,89.992C966.043,964.362,1107.32,1178.05,1226.22,1329.83Z" fill="#fff"/>
              <path id="Path_13" data-name="Path 13" d="M1202.77,1130.86c37.6-161.041,111.863-263.719,167.541-321.5,60.649-62.936,115.612-90.026,122.2-90.747l-.3-2.684,2.679-3.46c-1.649-1.279-3.659-.915-6.794.2-44.882,15.957-225.991,133.426-292.109,416.606Z" fill="#fff"/>
              <path id="Path_14" data-name="Path 14" d="M1485.89,2354.63l6.951-.349c-16.491-328.428,225.557-617.244,330.39-726.174,5.632-5.851,7.446-7.752,8.131-8.764l-5.769-3.89,2.884,1.945-2.869-1.964c-.51.7-3.7,4.015-7.388,7.85-75.6,78.558-140.442,162.14-192.713,248.421C1525.09,2037.45,1478.12,2199.93,1485.89,2354.63Z" fill="#fff"/>
              <path id="Path_15" data-name="Path 15" d="M1034.74,1926.63l-.006-3.433-1.321,3.184-2.14-3.568,2.805-3.071a.2.2,0,0,1,.044-.005c4.763-.2,294.3,35.8,417.06,268.243l-6.152,3.249C1323.49,1961.11,1037.51,1926.74,1034.74,1926.63Zm.01-3.47,1.33-3.206Z" fill="#fff"/>
              <path id="Path_16" data-name="Path 16" d="M1618.17,2987.23c2.092-66.27,33.47-177.375,171.053-330.342,7.808-8.68,7.808-8.68,7.673-10.489l-6.938.524,3.469-.261-3.032-1.647c-.458.678-3.186,3.711-6.342,7.222-138.991,154.531-170.709,267.343-172.839,334.771Z" fill="#fff"/>
              <path id="Path_17" data-name="Path 17" d="M1590.51,2860.4l6.8-1.477c-26.108-120.268-184.765-217.781-277.014-265.2-2.926-1.5-4.809-2.466-5.478-2.87l-3.593,5.957c.717.434,2.742,1.48,5.892,3.1C1408.27,2646.77,1565.01,2742.92,1590.51,2860.4Z" fill="#fff"/>
            </g>
          </g>
        </g>
        <g id="Group_15" data-name="Group 15">
          <g id="Group_12" data-name="Group 12">
            <path id="Path_19" data-name="Path 19" d="M3270.93,3104.71,508.74,3081.16v69.665c0,18.908,12.048,34.986,28.364,37.851l781.064,137.182a109.648,109.648,0,0,0,28.023,1.287l1894.72-156.409c16.915-1.4,30.017-17.524,30.017-36.951V3104.71Z" fill="#26264f"/>
            <g id="Group_11" data-name="Group 11">
              <path id="Path_20" data-name="Path 20" d="M2268.54,2993.07,537.3,3120.51c-30.979,2.28-56.168-21.952-56.168-54.13V1777.18c0-32.179,25.189-58.265,56.168-58.265H2268.54c25.522,0,46.158,23.581,46.158,52.671v1165.42C2314.7,2966.08,2294.06,2991.19,2268.54,2993.07Z" fill="#26264f"/>
              <path id="Path_21" data-name="Path 21" d="M2296.15,2993.07,564.908,3120.51c-30.98,2.28-56.168-21.952-56.168-54.13V1777.18c0-32.179,25.188-58.265,56.168-58.265h1731.24c25.523,0,46.158,23.581,46.158,52.671v1165.42C2342.3,2966.08,2321.67,2991.19,2296.15,2993.07Z" fill="url(#linear-gradient-3)"/>
              <path id="Path_22" data-name="Path 22" d="M2242.21,2910.9,629.746,3021.6c-25.21,1.73-45.7-18.158-45.7-44.428V1848.48c0-26.27,20.487-47.654,45.7-47.763l1612.47-6.951c21.054-.091,38.084,19.232,38.084,43.16v1028.04C2280.3,2888.89,2263.27,2909.46,2242.21,2910.9Z" fill="#eff2f6"/>
              <path id="Path_23" data-name="Path 23" d="M1491.67,1754.17c0,11.979-8.91,21.718-19.914,21.753s-19.957-9.669-19.957-21.675,8.94-21.745,19.957-21.754S1491.67,1742.19,1491.67,1754.17Z" fill="#fff"/>
              <path id="Path_24" data-name="Path 24" d="M564.9,3120.51l1722.48-126.8,8.765-.645c11.71-.862,22.358-6.651,30.492-15.432-123.952-6.783-200.94-50.771-250.6-96.222-99.734-91.276-82.435-181.287-189.987-241.3-134.146-74.854-239.624,20-341.419-73.587-61.713-56.736-31.415-99.044-107.354-183.828-84.107-93.906-138.865-62.34-223.392-146.856-106.877-106.865-53.424-190.008-145.486-266.734-111.684-93.08-232.13-6.929-338.445-96.195-45.855-38.5-71.016-94.474-84.154-154H564.911c-30.98,0-56.168,26.087-56.168,58.265v1289.2C508.74,3098.55,533.924,3122.78,564.9,3120.51Z" fill="#fff" opacity="0.48"/>
            </g>
            <path id="Path_25" data-name="Path 25" d="M2365.15,2986,508.74,3120.14,1318.168,3262.3a109.692,109.692,0,0,0,28.023,1.288L3270.931,3104.7l-876.25-117.8A143.33,143.33,0,0,0,2365.15,2986Z" fill="url(#linear-gradient-3)"/>
            <path id="Path_26" data-name="Path 26" d="M779.619,3121.3,2325.13,3007.95l478.33,63.79L1271.26,3192.9Z" fill="#26264f"/>
          </g>
          <g id="Group_14" data-name="Group 14">
            <g id="Group_13" data-name="Group 13" clip-path="url(#clip-path-4)">
              <path id="Path_27" data-name="Path 27" d="M2681.17,1530.03c16.175-48.694,9.685-75.379,0-90.909-13.506-21.656-44.448-39.614-101.549-83.333-3.736-2.86-10.191-7.968-9.375-10.773,2.022-6.942,33.1-3.351,60.15,10.773,39.2,20.471,47.366,22.051,70.669,29.3,41.184,12.811,77.394,2.112,132.428-14.147a458.732,458.732,0,0,0,90.669-37.879s39.894-18.939,50.774,0l-58.028,30.3s50.775-22.727,79.788-7.576l-101.549,45.454s76.162-22.727,79.788-7.576c-49.5,36.878-93.161,49.467-126.937,53.03-51.981,5.484-91.11-9.291-105.176,11.363-11.354,16.674.436,46.433,14.507,71.97H2681.17Z" fill="url(#linear-gradient-5)"/>
              <path id="Path_28" data-name="Path 28" d="M1999.33,1886.09c45.243-70.787,100.806-113.2,141.033-138.775a471.136,471.136,0,0,1,62.306,34.676c73.484,48.5,81.56,83.429,143.923,123.873,33.073,21.449,74.035,48.013,126.624,44.392,60.537-4.169,102.025-45.966,119.268-63.337,118.278-119.156,72.007-344.892,66.915-368.252l134.189-3.788c23.529,43.094,153.188,317.877,58.028,594.7-136.29,396.464-690.711,399.883-858.332,217.366C1893.47,2218.25,1894.06,2050.81,1999.33,1886.09Z" fill="url(#linear-gradient-6)"/>
              <path id="Path_29" data-name="Path 29" d="M1138.94,3069.35c-15.116-22.42-41.769-68.84-62.255-129.259-55.406-163.4-25.309-310.033-17.846-351.573,25.067-139.516,28.906-396.428-54.205-908.2,148.422-39.128,371.615-78.3,640.493-52.347a1830.478,1830.478,0,0,1,495.235,119.349c3.225,235.394-15.039,422.1-32.046,548.057-27.256,201.868-53.795,266.3-56.9,438.9-4.676,259.75,52.143,296.345,8.835,376.907C1935.78,3342.73,1312.52,3326.79,1138.94,3069.35Z" fill="url(#linear-gradient-7)"/>
              <path id="Path_30" data-name="Path 30" d="M1555.15,1351.79q-11.078,109.845-22.154,219.689c-2,19.84-17.23,35.388-36.266,37.027l-226.071,19.461,417.913,133.822,191.578-95.42-175.362-56.756c-15.016-4.86-25.879-18.505-27.713-34.811q-7.629-67.83-15.259-135.661Z" fill="url(#linear-gradient-8)"/>
              <path id="Path_31" data-name="Path 31" d="M1514.35,1317.72c46.068,110.413,161.346,201.8,220.914,174.685s53.229-164.462,7.163-274.876-134.3-152.517-193.864-125.406S1468.28,1207.31,1514.35,1317.72Z" fill="url(#linear-gradient-9)"/>
              <path id="Path_32" data-name="Path 32" d="M1591.82,1307.71c-5.809,4.547-28.5-27.941-41.073-22.14-10.608,4.893-13.48,36.787-.62,58.661,10.946,18.62,25.523,16.76,29.768,31.284,6.982,23.88-23.467,59.55-34.862,55.351-7.309-2.694-1.245-19.75-8.348-39.231-13.962-38.289-59.8-33.882-97.231-63.169-58.858-46.057-74.888-158.212-39.8-200.2,13.338-15.958,28.293-14.881,46.42-40.578,19.626-27.821,11.055-41.786,26.153-59.673,25.621-30.35,81.859-27.522,117.4-16.306,44.714,14.112,47.957,38.753,77.883,36.936,35.44-2.151,40.552-37.3,82.814-43.759,2.434-.373,41.884-5.764,71.595,21.035,38.582,34.8,29.135,95.387,27.8,103.975-8.56,54.9-51.457,104.4-98.909,115.542-9.989,2.345-7.968.122-108.471-2.411-33.2-.837-53.273-1.09-59.955,11.11C1572.74,1271.75,1597.66,1303.14,1591.82,1307.71Z" fill="url(#linear-gradient-10)"/>
              <path id="Path_33" data-name="Path 33" d="M1058.85,2087.17c53.338,25.274,82.087,57.3,98.544,86.82,62.752,112.574-33.775,222.931,35.532,363.683,47.7,96.865,110.92,80.149,142.128,170.708,40.035,116.174-47.089,192.777-42.639,311.729,2.245,59.979,27.953,134.9,115.119,220.517-114.409-32.966-213.858-90.1-268.586-171.273-15.116-22.42-41.769-68.84-62.255-129.259-55.406-163.4-25.309-310.033-17.846-351.573C1076.13,2492.29,1083.32,2340.2,1058.85,2087.17Z" opacity="0.3" fill="url(#linear-gradient-11)"/>
              <path id="Path_34" data-name="Path 34" d="M823.825,3163.2c-186.1-93.97-190.888-426.766-193.443-598.229-2.009-134.8-10.448-701,302.9-857.033,54.688-27.233,106.742-35.779,144.793-38.363,36.066,23.091,126.265,88.074,158.339,205.062,18.164,66.252,12.6,130.635-11.511,217.705-62.393,225.3-155.576,265.211-212.808,414.025-116.427,302.734,96.083,572.957-16.023,665.2C938.053,3219.3,833.379,3168.02,823.825,3163.2Z" fill="url(#linear-gradient-12)"/>
            </g>
          </g>
        </g>
        <path id="Path_36" data-name="Path 36" d="M1680.45,1479.69c-80.976,0-111.474-116.034-111.8-117.3a5.636,5.636,0,0,1,10.924-2.78c.323,1.262,33.153,125.99,118.789,106.737a5.637,5.637,0,0,1,2.469,11A92.687,92.687,0,0,1,1680.45,1479.69Z" fill="#fff"/>
        <path id="Path_37" data-name="Path 37" d="M1751.96,1461.11c2.22,8.536-8.6,18.736-24.165,22.784s-29.983.409-32.2-8.127,8.6-18.736,24.165-22.784S1749.74,1452.58,1751.96,1461.11Z" fill="#fff"/>
        <path id="Path_38" data-name="Path 38" d="M1590.43,1336.54c6.053,23.28-.828,45.219-15.371,49s-31.239-12.026-37.292-35.307.828-45.218,15.37-49S1584.38,1313.26,1590.43,1336.54Z" fill="#fff"/>
        <g id="Group_17" data-name="Group 17">
          <path id="Path_39" data-name="Path 39" d="M2570.3,1627.23l-97.319-71.128.444-201.282c.048-21.882-17.05-40.5-38.283-41.6l-457.226-23.8c-23.634-1.23-43.151,16.579-43.482,39.8l-3.612,253.707c-.335,23.514,18.8,42.893,42.622,43.259l405.581,6.234,55.137.847,133.771,2.056C2572.09,1635.39,2573.74,1629.74,2570.3,1627.23Z" fill="url(#linear-gradient-13)"/>
          <g id="Group_16" data-name="Group 16">
            <path id="Path_40" data-name="Path 40" d="M2131.88,1454.19a25.836,25.836,0,0,1-26.834,25.645,27.387,27.387,0,0,1-26.438-27.492,25.832,25.832,0,0,1,26.99-25.608A27.4,27.4,0,0,1,2131.88,1454.19Z" fill="#fff"/>
            <path id="Path_41" data-name="Path 41" d="M2222,1457.32a25.389,25.389,0,0,1-26.25,25.4,27.043,27.043,0,0,1-25.961-27.21,25.383,25.383,0,0,1,26.4-25.362A27.057,27.057,0,0,1,2222,1457.32Z" fill="#fff"/>
            <path id="Path_42" data-name="Path 42" d="M2310.33,1460.38a24.956,24.956,0,0,1-25.683,25.157c-14.165-.449-25.6-12.512-25.5-26.933a24.949,24.949,0,0,1,25.831-25.122C2299.08,1434.01,2310.41,1446.05,2310.33,1460.38Z" fill="#fff"/>
          </g>
        </g>
        <g id="Group_20" data-name="Group 20">
          <g id="Group_18" data-name="Group 18">
            <path id="Path_43" data-name="Path 43" d="M3119.93,545.525l-854.756-21.911c-67.971-1.742-124.316,50.134-125.527,115.941l-7.8,423.926c-1.22,66.329,53.478,120.151,121.843,120.151h859.551c63.546,0,115.316-51.539,115.923-115.057l3.879-406.027C3233.65,599.509,3183.13,547.145,3119.93,545.525Z" fill="url(#linear-gradient-14)"/>
            <path id="Path_44" data-name="Path 44" d="M2206.82,974.589l-302.083,193.006a8.645,8.645,0,0,0,4.82,16.037h426.817Z" fill="url(#linear-gradient-15)"/>
          </g>
          <g id="Group_19" data-name="Group 19">
            <path id="Path_45" data-name="Path 45" d="M2439.82,723.361a93.349,93.349,0,0,1,31.446,5.07,70.728,70.728,0,0,1,24.4,14.349,64.913,64.913,0,0,1,15.81,22.338,72.187,72.187,0,0,1,5.671,29.042,77.343,77.343,0,0,1-4.04,25.432,105.837,105.837,0,0,1-10.825,22.34,150.406,150.406,0,0,1-15.9,20.621q-9.108,9.966-19.072,20.277l-56.021,57.222a135.475,135.475,0,0,1,16.153-3.694,93.941,93.941,0,0,1,15.122-1.29h63.752q6.872,0,10.914,3.867a13.514,13.514,0,0,1,4.037,10.225v25.432H2350.81V960.5a24.637,24.637,0,0,1,1.8-8.937,24.957,24.957,0,0,1,5.757-8.592l75.44-75.609q9.447-9.621,16.924-18.387a123.654,123.654,0,0,0,12.545-17.356,79.481,79.481,0,0,0,7.734-17.441,64.377,64.377,0,0,0,2.662-18.646,44.192,44.192,0,0,0-2.577-15.723,30.246,30.246,0,0,0-18.816-18.387,44.739,44.739,0,0,0-14.865-2.32q-15.3,0-25.175,7.732a40.505,40.505,0,0,0-13.833,20.794q-1.891,6.531-5.671,9.365a15.606,15.606,0,0,1-9.622,2.836,34.742,34.742,0,0,1-5.671-.516l-22.341-3.952q2.58-17.871,9.968-31.362a75.217,75.217,0,0,1,18.473-22.511,76.5,76.5,0,0,1,25.432-13.574A101.465,101.465,0,0,1,2439.82,723.361Z" fill="#fff"/>
            <path id="Path_46" data-name="Path 46" d="M2697.58,880.938h31.278v24.574a8.586,8.586,0,0,1-2.234,5.928q-2.235,2.493-6.531,2.493H2697.58v60.659h-37.117V913.933H2555.64a11.947,11.947,0,0,1-11.684-9.279l-4.3-21.481,117.713-157.234h40.208v155Zm-37.12-81.281q0-5.5.346-11.856t1.2-13.232l-77.156,106.368h75.608v-81.28Z" fill="#fff"/>
            <path id="Path_47" data-name="Path 47" d="M2772.5,975.107a25.2,25.2,0,0,1-3.954,6.874,23.55,23.55,0,0,1-5.5,4.9,25.959,25.959,0,0,1-6.528,3.008,23.308,23.308,0,0,1-6.7,1.03h-17.873L2832.3,734.188a24.2,24.2,0,0,1,8.423-11.083,22.4,22.4,0,0,1,13.23-3.867h18.044Z" fill="#fff"/>
            <path id="Path_48" data-name="Path 48" d="M3056.37,726.111V744.5a40.607,40.607,0,0,1-1.8,13.317,77.221,77.221,0,0,1-3.523,8.506l-94,193.835a29.1,29.1,0,0,1-8.248,10.225q-5.329,4.212-14.433,4.21h-30.76l96.229-189.884a98.915,98.915,0,0,1,13.405-20.1H2894.327a9.986,9.986,0,0,1-9.8-9.795v-28.7h171.84Z" fill="#fff"/>
          </g>
        </g>
      </g>
    </g>
  </g>
</svg>
