<svg xmlns="http://www.w3.org/2000/svg" xmlns:xlink="http://www.w3.org/1999/xlink" width="242.428" height="189.673" viewBox="0 0 242.428 189.673">
  <defs>
    <linearGradient id="linear-gradient" x1="0.705" y1="0.054" x2="0.336" y2="1.11" gradientUnits="objectBoundingBox">
      <stop offset="0" stop-color="#6802af"/>
      <stop offset="1" stop-color="#de11bb"/>
    </linearGradient>
    <linearGradient id="linear-gradient-2" x1="10.726" y1="-36.439" x2="-1.195" y2="6.62" xlink:href="#linear-gradient"/>
    <linearGradient id="linear-gradient-3" x1="20.108" y1="-78.592" x2="0.997" y2="-1.518" xlink:href="#linear-gradient"/>
    <linearGradient id="linear-gradient-4" x1="19.484" y1="-75.686" x2="0.655" y2="-0.125" xlink:href="#linear-gradient"/>
    <linearGradient id="linear-gradient-5" x1="0.643" y1="-0.165" x2="0.337" y2="0.898" xlink:href="#linear-gradient"/>
  </defs>
  <g id="svg" transform="translate(-243.752 95.836)">
    <g id="Group_1" data-name="Group 1" transform="translate(243.752 -95.836)">
      <path id="Path_1" data-name="Path 1" d="M485.565,346.63h-33.1c-.845,0-6.168.962-17.93,12.451-2.016,5.527-11.641,21.879-15.959,27.1a51.1,51.1,0,0,1-3.932,4.252c1.226,5.006-.138,10.462-2.363,15.475,0,0-5.428-11.879-6.731-13.752a81.57,81.57,0,0,0-6.268,5.468c-2.148,2.145-6.284,6.651-6.284,6.651s-3.926,4.863-5.815,7.373q-2.5,3.316-4.97,6.677-3.313,4.486-6.593,9.005-3.921,5.4-7.775,10.845-4.3,6.079-8.526,12.217-4.473,6.5-8.835,13.088-4.418,6.69-8.725,13.5-4.18,6.619-8.178,13.414c-2.48,4.226-4.9,8.5-7.179,12.861-2.038,3.862-4,7.8-5.782,11.82a92.506,92.506,0,0,0-3.943,10.3,34.846,34.846,0,0,0-1.657,8.3,1.125,1.125,0,0,0,.528,1.05.819.819,0,0,0,1.023-.191l98.8-108.347.061-.065a1.183,1.183,0,0,1,1.443-.294,1.6,1.6,0,0,1,.8,1.445v73.283a1.463,1.463,0,0,1-1.331,1.567h-22.8c-24.364,0-47.82,10.781-65.727,30.2a2.588,2.588,0,0,0-.48,2.523,1.98,1.98,0,0,0,1.819,1.449H441.768c2.724,0,4.931-2.6,4.931-5.806V391.877l39.494-43.3a1.258,1.258,0,0,0,.247-1.224A.97.97,0,0,0,485.565,346.63Z" transform="translate(-244.076 -346.63)" fill="url(#linear-gradient)"/>
      <path id="Path_2" data-name="Path 2" d="M282.034,568.664l2.679-1.824-5.4,3.688C280.22,569.9,281.124,569.287,282.034,568.664Z" transform="translate(-235.584 -417.844)" fill="url(#linear-gradient-2)"/>
      <path id="Path_3" data-name="Path 3" d="M229.629,607.07c-1.123.7-2.246,1.37-3.37,2.061Q227.922,608.115,229.629,607.07Z" transform="translate(-210.062 -429.124)" fill="url(#linear-gradient-3)"/>
      <path id="Path_4" data-name="Path 4" d="M235.68,603c-1.123.711-2.291,1.411-3.42,2.1C233.389,604.411,234.534,603.706,235.68,603Z" transform="translate(-212.693 -427.151)" fill="url(#linear-gradient-4)"/>
      <path id="Path_5" data-name="Path 5" d="M234.876,466.6l.733-.675h.035l.059-.053,2.13-1.973q2.823-2.613,5.592-5.219l1.516-1.433c.5-.446.946-.887,1.412-1.333l1.407-1.327,2.779-2.636,1.867-1.761c6.414-6.135,12.5-12.059,18.04-17.525l1.9-1.873q2.69-2.66,5.186-5.155l1.09-1.08c1.7-1.7,3.334-3.341,4.874-4.891l.758-.763,1.228-1.239.951-.963.471-.475.575-.587c5.5-5.513,11-11.989,16.053-18.083a42,42,0,0,0,4.785-6.617c.168-.3,1.739-2.6,1.59-2.777l-9.624-6.693a13.929,13.929,0,0,1,12.517-1.761,41.16,41.16,0,0,1,2.972-4c4.393-5.607,16.757-12.975,20.64-15.417,4-3.934-12.745-2.272-29.69-2.272a7.375,7.375,0,0,0-5.449,2.542l-5.875,6.487-20.858,23v.035l-.178.194L252.42,414.4l-17.594,19.41-18,19.85-4.146,2.348a1.812,1.812,0,0,1-.188-.258l-.074-.141a.732.732,0,0,1-.069-.158,1.546,1.546,0,0,1-.094-.341,2.3,2.3,0,0,1-.035-.382V390.574a2.367,2.367,0,0,1,0-.264.83.83,0,0,1,0-.118.673.673,0,0,1,.03-.135.522.522,0,0,1,.05-.164,1.325,1.325,0,0,1,.064-.153,1.124,1.124,0,0,1,.1-.194,1.407,1.407,0,0,1,.124-.182.882.882,0,0,1,.134-.147h0l.149-.129h.045a1.016,1.016,0,0,1,.149-.094,1.07,1.07,0,0,1,.159-.064,1.3,1.3,0,0,1,.406-.064h18.481q1.659,0,3.3-.076c.55,0,1.095-.047,1.64-.088s1.095-.076,1.639-.129,1.095-.1,1.639-.164h.025c.53-.064,1.06-.123,1.585-.194h.084c.243-.029.5-.059.723-.1.54-.076,1.08-.158,1.62-.253l.807-.135a76.439,76.439,0,0,0,12.7-3.411q3.328-1.174,6.568-2.689l.951-.452.951-.464c.243-.123.5-.241.733-.37l.5-.258.3-.158.342-.176.936-.5.223-.123c.441-.235.877-.481,1.313-.734l.208-.117,1.035-.587.916-.552.911-.587.906-.587c.3-.188.6-.387.9-.587l.149-.094.748-.511.892-.617c.292-.2.589-.417.882-.622l1.114-.816,1.07-.757h.025l.584-.452.911-.716c.525-.429,1.05-.857,1.575-1.3l.376-.317.377-.323.807-.7.054-.047.8-.716.822-.746c.3-.282.6-.558.9-.845s.5-.458.723-.693.535-.523.8-.787l.793-.8q.4-.4.788-.81c.52-.534,1.04-1.086,1.55-1.644l.119-.141a1.4,1.4,0,0,0,.1-.159,1.82,1.82,0,0,0,.089-.176,1.036,1.036,0,0,0,.059-.135.948.948,0,0,0,.045-.158.556.556,0,0,0,.03-.123l.025-.135v-.106a1.442,1.442,0,0,0,0-.147h0q0-.076,0-.153a.26.26,0,0,1,0-.064.092.092,0,0,0,0-.035c-.006-.053-.014-.106-.025-.159a2.666,2.666,0,0,0-.124-.393.972.972,0,0,0-.079-.164.642.642,0,0,0-.064-.1h0a.742.742,0,0,0-.094-.135,1.62,1.62,0,0,0-.129-.141l-.054-.059-.149-.117a1.18,1.18,0,0,0-.277-.147,1.33,1.33,0,0,0-.466-.082H187.657a.953.953,0,0,0-.263.029,1.228,1.228,0,0,0-.248.076l-.1.047a1.366,1.366,0,0,0-.352.264l-.089.1a1.294,1.294,0,0,0-.2.3l-.059.129a.672.672,0,0,0-.04.088,1.8,1.8,0,0,0-.074.252l-.025.094c0,.057,0,.113,0,.17V486.7a1.717,1.717,0,0,1-.035.358,1.1,1.1,0,0,1-.035.176,1.359,1.359,0,0,1-.124.323,1.388,1.388,0,0,1-.079.153,1.359,1.359,0,0,1-.094.147l-.1.129-33.519,36.988-.114.141c-.055.076-.1.147-.144.223a1.266,1.266,0,0,0-.1.241,2.01,2.01,0,0,0,.3,1.9,1.1,1.1,0,0,0,.1.118,1.335,1.335,0,0,0,.228.2l.134.082.134.065a1.228,1.228,0,0,0,.882,0h.045l.991-.346a66.506,66.506,0,0,0,8.688-4.11l1.139-.634c.594-.341,1.2-.693,1.818-1.057l1.238-.74c1.749-1.057,3.556-2.213,5.414-3.446q.421-.27.847-.587,4.111-2.748,8.5-5.983l1.323-.975c.758-.587,1.516-1.133,2.288-1.714q1.456-1.1,2.937-2.249c.991-.763,1.981-1.532,2.972-2.349s2.011-1.585,3.021-2.4,2.036-1.632,3.056-2.466,2.056-1.679,3.086-2.536,2.07-1.714,3.116-2.589c1.56-1.3,3.13-2.636,4.706-3.98l2.7-2.349c.228-.188.451-.387.674-.587l2.972-2.56,2.4-2.108,2.358-2.084.05-.041,2.407-2.143q3.017-2.695,6.023-5.425,1.308-1.174,2.605-2.348l3.14-2.877Z" transform="translate(-151.741 -348.009)" fill="url(#linear-gradient-5)"/>
    </g>
  </g>
</svg>
