<svg id="Layer_1" data-name="Layer 1" xmlns="http://www.w3.org/2000/svg" xmlns:xlink="http://www.w3.org/1999/xlink" viewBox="0 0 889.09 301.16">
  <defs>
    <style>
      .cls-1 {
        fill: url(#linear-gradient);
      }

      .cls-2 {
        fill: url(#linear-gradient-2);
      }

      .cls-3 {
        fill: url(#linear-gradient-3);
      }

      .cls-4 {
        fill: url(#linear-gradient-4);
      }

      .cls-5 {
        fill: url(#linear-gradient-5);
      }

      .cls-6 {
        fill: #6802af;
      }
    </style>
    <linearGradient id="linear-gradient" x1="533.92" y1="362.26" x2="419.24" y2="670.56" gradientUnits="userSpaceOnUse">
      <stop offset="0" stop-color="#6802af"/>
      <stop offset="1" stop-color="#de11bb"/>
    </linearGradient>
    <linearGradient id="linear-gradient-2" x1="382.49" y1="305.94" x2="267.81" y2="614.24" xlink:href="#linear-gradient"/>
    <linearGradient id="linear-gradient-3" x1="346.91" y1="292.7" x2="232.24" y2="601" xlink:href="#linear-gradient"/>
    <linearGradient id="linear-gradient-4" x1="350.92" y1="294.2" x2="236.25" y2="602.49" xlink:href="#linear-gradient"/>
    <linearGradient id="linear-gradient-5" x1="392.37" y1="309.82" x2="277.69" y2="618.12" xlink:href="#linear-gradient"/>
  </defs>
  <title>Untitled-1</title>
  <g>
    <path class="cls-1" d="M623.86,346.63H563.92c-1.53,0-11.17,1.48-32.47,19.15-3.65,8.5-21.08,33.65-28.9,41.68a85.33,85.33,0,0,1-7.12,6.54c2.22,7.7-.25,16.09-4.28,23.8,0,0-9.83-18.27-12.19-21.15,0,0-6.73,4.47-11.35,8.41-3.89,3.3-11.38,10.23-11.38,10.23s-7.11,7.48-10.53,11.34q-4.53,5.1-9,10.27-6,6.9-11.94,13.85-7.1,8.31-14.08,16.68-7.78,9.35-15.44,18.79-8.1,10-16,20.13-8,10.29-15.8,20.77-7.57,10.18-14.81,20.63c-4.49,6.5-8.87,13.08-13,19.78-3.69,5.94-7.24,12-10.47,18.18a130,130,0,0,0-7.14,15.84,46.6,46.6,0,0,0-3,12.77,1.67,1.67,0,0,0,2.81,1.32L496.75,469l.11-.1a2.41,2.41,0,0,1,4.06,1.77V583.38a2.41,2.41,0,0,1-2.41,2.41H457.23a175.63,175.63,0,0,0-119,46.43,3.53,3.53,0,0,0,2.4,6.13H544.55a8.93,8.93,0,0,0,8.93-8.93V416.22L625,349.62A1.72,1.72,0,0,0,623.86,346.63Z" transform="translate(-151.67 -346.63)"/>
    <path class="cls-2" d="M284.16,570.38l4.77-3.54L279.31,574C280.93,572.78,282.54,571.59,284.16,570.38Z" transform="translate(-151.67 -346.63)"/>
    <path class="cls-3" d="M232.26,607.07c-2,1.35-4,2.66-6,4Q229.22,609.1,232.26,607.07Z" transform="translate(-151.67 -346.63)"/>
    <path class="cls-4" d="M238.35,603c-2,1.38-4.08,2.74-6.09,4.08C234.27,605.74,236.31,604.37,238.35,603Z" transform="translate(-151.67 -346.63)"/>
    <path class="cls-5" d="M319.58,543.21l1.48-1.15.07,0,.12-.09,4.3-3.36q5.7-4.45,11.29-8.89l3.06-2.44c1-.76,1.91-1.51,2.85-2.27l2.84-2.26,5.61-4.49,3.77-3c12.95-10.45,25.23-20.54,36.42-29.85l3.84-3.19q5.43-4.53,10.47-8.78l2.2-1.84c3.44-2.9,6.73-5.69,9.84-8.33l1.53-1.3,2.48-2.11,1.92-1.64.95-.81,1.16-1c11.11-9.39,22.2-20.42,32.41-30.8a73.39,73.39,0,0,0,9.66-11.27c.34-.51,3.51-4.43,3.21-4.73l-19.43-11.4a32.55,32.55,0,0,1,25.27-3,72.34,72.34,0,0,1,6-6.81c8.87-9.55,33.83-22.1,41.67-26.26,8.08-6.7-25.73-3.87-59.94-3.87a16.16,16.16,0,0,0-11,4.33l-11.86,11.05-42.11,39.17,0,.06-.36.33L355,454.3l-35.52,33.06-36.34,33.81-8.37,4a3.16,3.16,0,0,1-.38-.44l-.15-.24a1.16,1.16,0,0,1-.14-.27,2.32,2.32,0,0,1-.19-.58,3.32,3.32,0,0,1-.07-.65V413.71a3.42,3.42,0,0,1,0-.45,1.18,1.18,0,0,1,0-.2,1,1,0,0,1,.06-.23c0-.09.06-.19.1-.28a2.1,2.1,0,0,1,.13-.26,1.85,1.85,0,0,1,.21-.33,2.42,2.42,0,0,1,.25-.31,1.63,1.63,0,0,1,.27-.25h0l.3-.22a.06.06,0,0,1,0,0s.06,0,.09,0a2.11,2.11,0,0,1,.3-.16,2.39,2.39,0,0,1,.32-.11,3.07,3.07,0,0,1,.82-.11h37.31q3.35,0,6.66-.13c1.11,0,2.21-.08,3.31-.15s2.21-.13,3.31-.22,2.21-.17,3.31-.28h.05c1.07-.11,2.14-.21,3.2-.33h0l.17,0c.49-.05,1-.1,1.46-.17,1.09-.13,2.18-.27,3.27-.43l1.63-.23A177.53,177.53,0,0,0,366,403.05q6.72-2,13.26-4.58l1.92-.77,1.92-.79c.49-.21,1-.41,1.48-.63l1-.44.6-.27.69-.3,1.89-.85.45-.21c.89-.4,1.77-.82,2.65-1.25l.42-.2,2.09-1,1.85-.94,1.84-1,1.83-1c.6-.32,1.21-.66,1.81-1l.3-.16,1.51-.87,1.8-1.05c.59-.34,1.19-.71,1.78-1.06l2.25-1.39L411.5,382s0,0,.05,0l1.18-.77,1.84-1.22c1.06-.73,2.12-1.46,3.18-2.21l.76-.54.76-.55,1.63-1.19.11-.08,1.62-1.22,1.66-1.27c.6-.48,1.21-.95,1.81-1.44s1-.78,1.46-1.18,1.08-.89,1.62-1.34l1.6-1.36q.8-.68,1.59-1.38c1.05-.91,2.1-1.85,3.13-2.8l.24-.24a2.34,2.34,0,0,0,.2-.27,3,3,0,0,0,.18-.3,1.67,1.67,0,0,0,.12-.23,1.43,1.43,0,0,0,.09-.27.83.83,0,0,0,.06-.21l.05-.23c0-.06,0-.12,0-.18a2.09,2.09,0,0,0,0-.25v0a2.26,2.26,0,0,0,0-.26.37.37,0,0,1,0-.11.13.13,0,0,0,0-.06,2.56,2.56,0,0,0-.05-.27,4.05,4.05,0,0,0-.25-.67,1.56,1.56,0,0,0-.16-.28,1.09,1.09,0,0,0-.13-.17s0,0,0,0a1.28,1.28,0,0,0-.19-.23,3,3,0,0,0-.26-.24l-.11-.1-.3-.2a2.58,2.58,0,0,0-.56-.25,3.14,3.14,0,0,0-.94-.14H224.25a2.27,2.27,0,0,0-.53.05,2.83,2.83,0,0,0-.5.13l-.2.08a2.76,2.76,0,0,0-.71.45l-.18.17a2.24,2.24,0,0,0-.41.51l-.12.22a1.09,1.09,0,0,0-.08.15,2.72,2.72,0,0,0-.15.43l-.05.16a2.89,2.89,0,0,0,0,.29c0,.11,0,.23,0,.35V577.43a2.48,2.48,0,0,1-.07.61,1.63,1.63,0,0,1-.07.3,2.11,2.11,0,0,1-.25.55,2.26,2.26,0,0,1-.16.26,2.35,2.35,0,0,1-.19.25l-.21.22-67.67,63-.23.24c-.11.13-.2.25-.29.38a2,2,0,0,0-.21.41,3,3,0,0,0,.61,3.23,2,2,0,0,0,.21.2,2.61,2.61,0,0,0,.46.34l.27.14.27.11a2.91,2.91,0,0,0,1.78,0l.09,0,2-.59a146.61,146.61,0,0,0,17.54-7L177.5,639c1.2-.58,2.43-1.18,3.67-1.8l2.5-1.26c3.53-1.8,7.18-3.77,10.93-5.87q.85-.46,1.71-1,8.3-4.68,17.16-10.19l2.67-1.66c1.53-1,3.06-1.93,4.62-2.92q2.94-1.87,5.93-3.83c2-1.3,4-2.61,6-4s4.06-2.7,6.1-4.08,4.11-2.78,6.17-4.2,4.15-2.86,6.23-4.32,4.18-2.92,6.29-4.41c3.15-2.22,6.32-4.49,9.5-6.78l5.45-4c.46-.32.91-.66,1.36-1l6-4.36,4.85-3.59,4.76-3.55.1-.07,4.86-3.65q6.09-4.59,12.16-9.24,2.64-2,5.26-4l6.34-4.9Z" transform="translate(-151.67 -346.63)"/>
  </g>
  <g>
    <path class="cls-6" d="M680.78,478l-42.12-23.3,42.12-23.3v16.29l-14.52,7,14.52,7Z" transform="translate(-151.67 -346.63)"/>
    <path class="cls-6" d="M747.84,424.64l-7,17.72a46,46,0,0,0-4.43-2.78,24,24,0,0,0-10.92-2.88,16.41,16.41,0,0,0-12.1,5.32,17.1,17.1,0,0,0-5.2,12.34,17.56,17.56,0,0,0,5.1,12.76,16.61,16.61,0,0,0,12.31,5.21,25,25,0,0,0,11.12-2.62,28.51,28.51,0,0,0,4.22-2.63l6.8,18.23a44.44,44.44,0,0,1-6.07,3.4,39.55,39.55,0,0,1-16.07,3.5q-16.27,0-27.3-10.42Q687,471.06,687,454.67a36.2,36.2,0,0,1,10.51-26q11.12-11.55,27.71-11.55a38.33,38.33,0,0,1,16,3.7A60.15,60.15,0,0,1,747.84,424.64Z" transform="translate(-151.67 -346.63)"/>
    <path class="cls-6" d="M830.34,454.77a35.71,35.71,0,0,1-11.07,26.66q-11.09,10.79-28,10.78t-28.07-10.67q-11.07-10.68-11.07-26.77t11.07-26.66q11.07-10.68,28.07-10.68t28,10.68Q830.34,438.79,830.34,454.77Zm-21.32,0a18,18,0,0,0-4.84-12.6,17.64,17.64,0,0,0-25.5-.26,18.5,18.5,0,0,0,0,25.67,16.81,16.81,0,0,0,12.47,5.27A17.78,17.78,0,0,0,809,454.77Z" transform="translate(-151.67 -346.63)"/>
    <path class="cls-6" d="M901.92,454.72q0,16.48-10.61,26.47-10,9.48-25,9.48H838.37v-71.9h28q15.55,0,25.54,10.41T901.92,454.72Zm-22.76-.51q0-8.44-5.25-13.39a16.15,16.15,0,0,0-11.64-4.43H859.9v35.74h2.37a16.37,16.37,0,0,0,11.64-4.23Q879.16,463.07,879.16,454.21Z" transform="translate(-151.67 -346.63)"/>
    <path class="cls-6" d="M960,474.19l-4.84,16.48H909.85v-71.9h50l-4.43,16.48h-24v11.33h21.94v15.87H931.38v11.74Z" transform="translate(-151.67 -346.63)"/>
    <path class="cls-6" d="M993.49,418.75l-17.72,74.36-12.25-2.47,17.81-74.36Z" transform="translate(-151.67 -346.63)"/>
    <path class="cls-6" d="M1040.76,454.72,998.64,478V461.73l14.52-7-14.52-7V431.42Z" transform="translate(-151.67 -346.63)"/>
    <path class="cls-6" d="M705.35,570.36a23.62,23.62,0,0,1-8.4,18.38q-8.38,7.47-20.85,7.47a41.55,41.55,0,0,1-18.44-4.32,53.43,53.43,0,0,1-7-4.43l6.48-16.89a44.58,44.58,0,0,0,5.46,4.22q6.6,4.22,12.26,4.22c2.68,0,4.7-.65,6.08-2a6.4,6.4,0,0,0,2.06-4.84q0-4.11-7.83-6.18-11.32-3-14.52-4.94-7.93-5-7.93-15.76,0-9.37,7.41-16.27,7.93-7.42,19.78-7.42A42.36,42.36,0,0,1,696,524.83a44.57,44.57,0,0,1,6.28,3.3l-5,15.24a39.11,39.11,0,0,0-4.63-2.88A23.58,23.58,0,0,0,682,537.61a7.81,7.81,0,0,0-5.77,2.26,5.61,5.61,0,0,0-1.85,4q0,3.81,8,6.07,11.64,3.3,14.83,5.26Q705.34,560.16,705.35,570.36Z" transform="translate(-151.67 -346.63)"/>
    <path class="cls-6" d="M788.57,547.29q0,10.92-6,17.35t-16,6.44H753.24v23.59H731.72v-71.9h31.41q11.54,0,18.49,6.75T788.57,547.29Zm-20.19,0c0-2.54-.61-4.47-1.85-5.77-1.44-1.51-3.85-2.27-7.21-2.27h-6.08v16.59h6.49c3.3,0,5.63-.86,7-2.58A9.41,9.41,0,0,0,768.38,547.29Z" transform="translate(-151.67 -346.63)"/>
    <path class="cls-6" d="M879.52,594.67H856.24l-3.6-13.39H833.38l-3.71,13.39H806.39l25.34-71.9h22.55Zm-29.66-28.22-6.8-26.78-6.8,26.78Z" transform="translate(-151.67 -346.63)"/>
    <path class="cls-6" d="M952.44,570.36a23.64,23.64,0,0,1-8.39,18.38q-8.4,7.47-20.86,7.47a41.61,41.61,0,0,1-18.44-4.32,54.1,54.1,0,0,1-7-4.43l6.49-16.89a44.58,44.58,0,0,0,5.46,4.22Q916.29,579,922,579c2.67,0,4.7-.65,6.07-2a6.37,6.37,0,0,0,2.06-4.84q0-4.11-7.83-6.18-11.32-3-14.52-4.94-7.93-5-7.93-15.76,0-9.37,7.42-16.27,7.92-7.42,19.77-7.42a42.33,42.33,0,0,1,16.07,3.19,44,44,0,0,1,6.28,3.3l-5,15.24a39.1,39.1,0,0,0-4.64-2.88,23.55,23.55,0,0,0-10.61-2.88,7.82,7.82,0,0,0-5.77,2.26,5.64,5.64,0,0,0-1.85,4q0,3.81,8,6.07,11.64,3.3,14.84,5.26Q952.44,560.16,952.44,570.36Z" transform="translate(-151.67 -346.63)"/>
    <path class="cls-6" d="M1029,578.19l-4.84,16.48H978.81v-71.9h50l-4.43,16.48h-24v11.33h21.94v15.87h-21.94v11.74Z" transform="translate(-151.67 -346.63)"/>
  </g>
</svg>
