<svg xmlns="http://www.w3.org/2000/svg" xmlns:xlink="http://www.w3.org/1999/xlink" width="212.174" height="82.681" viewBox="0 0 212.174 82.681">
  <defs>
    <linearGradient id="linear-gradient" x1="0.705" y1="0.054" x2="0.336" y2="1.11" gradientUnits="objectBoundingBox">
      <stop offset="0" stop-color="#6802af"/>
      <stop offset="1" stop-color="#de11bb"/>
    </linearGradient>
    <linearGradient id="linear-gradient-2" x1="10.726" y1="-36.439" x2="-1.195" y2="6.62" xlink:href="#linear-gradient"/>
    <linearGradient id="linear-gradient-3" x1="20.108" y1="-78.592" x2="0.997" y2="-1.518" xlink:href="#linear-gradient"/>
    <linearGradient id="linear-gradient-4" x1="19.484" y1="-75.686" x2="0.655" y2="-0.125" xlink:href="#linear-gradient"/>
    <linearGradient id="linear-gradient-5" x1="0.643" y1="-0.165" x2="0.337" y2="0.898" xlink:href="#linear-gradient"/>
  </defs>
  <g id="svg" transform="translate(-35.256 -19.167)">
    <g id="Group_30" data-name="Group 30" transform="translate(35.256 19.167)">
      <path id="Path_6" data-name="Path 6" d="M381.8,346.63H368.837c-.331,0-2.415.406-7.021,5.25a66.43,66.43,0,0,1-6.249,11.427,21.03,21.03,0,0,1-1.54,1.793,11.069,11.069,0,0,1-.925,6.525s-2.126-5.009-2.636-5.8a32.731,32.731,0,0,0-2.454,2.306c-.841.9-2.461,2.8-2.461,2.8s-1.537,2.051-2.277,3.109q-.98,1.4-1.946,2.816-1.3,1.892-2.582,3.8-1.535,2.278-3.045,4.573-1.682,2.563-3.339,5.152-1.751,2.742-3.46,5.519-1.73,2.821-3.416,5.694-1.637,2.791-3.2,5.656c-.971,1.782-1.918,3.586-2.811,5.423-.8,1.629-1.566,3.29-2.264,4.984A40.914,40.914,0,0,0,315.666,422a15.692,15.692,0,0,0-.649,3.5.486.486,0,0,0,.207.443.305.305,0,0,0,.4-.081l38.688-45.687.024-.027a.441.441,0,0,1,.565-.124.686.686,0,0,1,.313.609v30.9a.6.6,0,0,1-.521.661h-8.926c-9.54,0-18.725,4.546-25.736,12.736a1.157,1.157,0,0,0-.188,1.064.788.788,0,0,0,.712.611h44.094a2.236,2.236,0,0,0,1.931-2.448V365.709l15.465-18.259a.562.562,0,0,0,.1-.516A.387.387,0,0,0,381.8,346.63Z" transform="translate(-279.063 -346.63)" fill="url(#linear-gradient)"/>
      <path id="Path_7" data-name="Path 7" d="M280.359,567.811l1.031-.971-2.08,1.963C279.66,568.469,280.008,568.142,280.359,567.811Z" transform="translate(-251.387 -506.466)" fill="url(#linear-gradient-2)"/>
      <path id="Path_8" data-name="Path 8" d="M227.557,607.07c-.432.37-.865.729-1.3,1.1Z" transform="translate(-209.926 -535.667)" fill="url(#linear-gradient-3)"/>
      <path id="Path_9" data-name="Path 9" d="M233.577,603c-.432.378-.882.751-1.317,1.119C232.695,603.751,233.136,603.376,233.577,603Z" transform="translate(-214.629 -532.712)" fill="url(#linear-gradient-4)"/>
      <path id="Path_10" data-name="Path 10" d="M188.132,408.682l.321-.316h.015l.026-.025.932-.924q1.236-1.223,2.448-2.444l.663-.671c.217-.209.414-.415.618-.624l.616-.621,1.216-1.234.817-.825c2.808-2.873,5.47-5.647,7.9-8.206l.833-.877q1.177-1.245,2.27-2.414l.477-.506c.746-.8,1.459-1.564,2.134-2.29l.332-.357.538-.58.416-.451.206-.223.252-.275c2.409-2.581,4.813-5.614,7.027-8.467a19.684,19.684,0,0,0,2.095-3.1,7.616,7.616,0,0,0,.7-1.3l-4.213-3.134a5.766,5.766,0,0,1,5.479-.825,19.226,19.226,0,0,1,1.3-1.872c1.923-2.625,7.335-6.076,9.035-7.219,1.752-1.842-5.579-1.064-13-1.064a3.145,3.145,0,0,0-2.385,1.19l-2.571,3.038-9.13,10.768v.017l-.078.091-9.605,11.3-7.7,9.089-7.879,9.295-1.815,1.1a.84.84,0,0,1-.082-.121l-.033-.066a.357.357,0,0,1-.03-.074.763.763,0,0,1-.041-.159,1.149,1.149,0,0,1-.015-.179V373.081a1.2,1.2,0,0,1,0-.124.413.413,0,0,1,0-.055.334.334,0,0,1,.013-.063.256.256,0,0,1,.022-.077.658.658,0,0,1,.028-.072.547.547,0,0,1,.046-.091.667.667,0,0,1,.054-.085.405.405,0,0,1,.059-.069h0l.065-.06h.02a.44.44,0,0,1,.065-.044.45.45,0,0,1,.069-.03.537.537,0,0,1,.178-.03h8.09q.726,0,1.444-.036c.241,0,.479-.022.718-.041s.479-.036.718-.061.479-.047.718-.077h.011c.232-.03.464-.058.694-.091h.037c.106-.014.217-.027.317-.047.236-.036.473-.074.709-.118l.353-.063a31.743,31.743,0,0,0,5.557-1.6,30.488,30.488,0,0,0,2.875-1.259l.416-.212.416-.217c.106-.058.217-.113.321-.173l.217-.121.13-.074.15-.082.41-.234.1-.058c.193-.11.384-.225.575-.344l.091-.055.453-.275.4-.258.4-.275.4-.275c.13-.088.262-.181.392-.275l.065-.044.327-.239.39-.289c.128-.094.258-.2.386-.291l.488-.382.468-.355h.011l.256-.212.4-.335c.23-.2.46-.4.689-.608l.165-.148.165-.151.353-.327.024-.022.351-.335.36-.349c.13-.132.262-.261.392-.4s.217-.214.317-.324.234-.245.351-.368l.347-.374q.173-.187.345-.379c.228-.25.455-.509.679-.77l.052-.066a.658.658,0,0,0,.043-.074.9.9,0,0,0,.039-.082.512.512,0,0,0,.026-.063.474.474,0,0,0,.02-.074.28.28,0,0,0,.013-.058l.011-.063v-.049q0-.034,0-.069h0q0-.036,0-.071a.13.13,0,0,1,0-.03.044.044,0,0,0,0-.016q0-.037-.011-.074a1.32,1.32,0,0,0-.054-.184.47.47,0,0,0-.035-.077.3.3,0,0,0-.028-.047h0a.346.346,0,0,0-.041-.063.746.746,0,0,0-.056-.066l-.024-.027-.065-.055a.509.509,0,0,0-.121-.069.549.549,0,0,0-.2-.039H167.462a.393.393,0,0,0-.115.014.517.517,0,0,0-.108.036l-.043.022a.6.6,0,0,0-.154.124l-.039.047a.613.613,0,0,0-.089.14l-.026.06a.33.33,0,0,0-.017.041.885.885,0,0,0-.033.118l-.011.044c0,.027,0,.053,0,.08V418.09a.857.857,0,0,1-.015.168.55.55,0,0,1-.015.082,1.114,1.114,0,0,1-.089.223.651.651,0,0,1-.041.069l-.046.06-14.672,17.32-.05.066c-.024.036-.043.069-.063.1a.618.618,0,0,0-.046.113,1,1,0,0,0,.132.888.5.5,0,0,0,.046.055.6.6,0,0,0,.1.094l.059.038.059.03a.505.505,0,0,0,.386,0h.02l.434-.162a28.282,28.282,0,0,0,3.8-1.924l.5-.3c.26-.159.527-.324.8-.495l.542-.346c.765-.495,1.557-1.036,2.37-1.614q.184-.126.371-.275,1.8-1.287,3.721-2.8l.579-.456c.332-.275.663-.531,1-.8q.637-.514,1.286-1.053c.434-.357.867-.717,1.3-1.1s.88-.742,1.323-1.122.891-.764,1.338-1.155.9-.786,1.351-1.188.906-.8,1.364-1.212c.683-.61,1.37-1.234,2.06-1.864l1.182-1.1c.1-.088.2-.181.295-.275l1.3-1.2,1.052-.987,1.032-.976.022-.019,1.054-1q1.32-1.262,2.637-2.54.572-.55,1.14-1.1l1.375-1.347Z" transform="translate(-151.741 -354.757)" fill="url(#linear-gradient-5)"/>
    </g>
    <g id="Group_31" data-name="Group 31" transform="translate(138.358 27.211)">
      <g id="Group_32" data-name="Group 32" transform="translate(0.476)">
        <path id="Path_12" data-name="Path 12" d="M707.188,419.916l-2.323,6.589a15.128,15.128,0,0,0-1.47-1.034,7.308,7.308,0,0,0-3.624-1.071,5.2,5.2,0,0,0-4.015,1.978,6.757,6.757,0,0,0-1.726,4.589,6.966,6.966,0,0,0,1.693,4.745,5.243,5.243,0,0,0,4.085,1.937,7.576,7.576,0,0,0,3.69-.974,9.364,9.364,0,0,0,1.4-.978l2.257,6.779a14.383,14.383,0,0,1-2.014,1.264,12.184,12.184,0,0,1-14.392-2.573A14.143,14.143,0,0,1,687,431.083a14.35,14.35,0,0,1,3.488-9.668,11.616,11.616,0,0,1,14.505-2.919A19.552,19.552,0,0,1,707.188,419.916Z" transform="translate(-686.997 -417.12)" fill="#6802af"/>
        <path id="Path_13" data-name="Path 13" d="M778.084,431.315a14.119,14.119,0,0,1-3.674,9.913,12.056,12.056,0,0,1-9.292,4.008,12.221,12.221,0,0,1-9.315-3.968,14.1,14.1,0,0,1-3.674-9.954A13.948,13.948,0,0,1,755.8,421.4a12.883,12.883,0,0,1,18.607,0A14.04,14.04,0,0,1,778.084,431.315Zm-7.075,0a7.164,7.164,0,0,0-1.606-4.685,5.431,5.431,0,0,0-8.462-.1,7.489,7.489,0,0,0,0,9.545,5.305,5.305,0,0,0,4.138,1.96,5.6,5.6,0,0,0,4.223-1.966,7.053,7.053,0,0,0,1.7-4.757Z" transform="translate(-724.496 -417.315)" fill="#6802af"/>
        <path id="Path_14" data-name="Path 14" d="M859.459,432.138a13.719,13.719,0,0,1-3.521,9.843,10.922,10.922,0,0,1-8.3,3.525H838.37V418.77h9.292a10.66,10.66,0,0,1,8.476,3.871A14.122,14.122,0,0,1,859.459,432.138Zm-7.553-.19a6.947,6.947,0,0,0-1.742-4.979,5.05,5.05,0,0,0-3.863-1.647h-.786v13.29h.786a5.1,5.1,0,0,0,3.863-1.573A7.011,7.011,0,0,0,851.906,431.948Z" transform="translate(-775.128 -418.157)" fill="#6802af"/>
        <path id="Path_15" data-name="Path 15" d="M926.492,439.378l-1.606,6.128H909.85V418.77h16.593l-1.47,6.128h-7.964v4.213h7.281v5.9h-7.294v4.365Z" transform="translate(-817.896 -418.157)" fill="#6802af"/>
      </g>
      <g id="Group_33" data-name="Group 33">
        <path id="Path_18" data-name="Path 18" d="M668.809,539.731a9.26,9.26,0,0,1-2.788,6.834,9.4,9.4,0,0,1-6.919,2.778,12.586,12.586,0,0,1-6.117-1.6,17.6,17.6,0,0,1-2.325-1.649l2.15-6.281a15.148,15.148,0,0,0,1.812,1.569,7.138,7.138,0,0,0,4.069,1.569,2.587,2.587,0,0,0,2.018-.744,2.525,2.525,0,0,0,.684-1.8q0-1.528-2.6-2.3a21.064,21.064,0,0,1-4.818-1.837q-2.632-1.859-2.632-5.86a8.455,8.455,0,0,1,2.459-6.05,8.7,8.7,0,0,1,6.564-2.759,12.76,12.76,0,0,1,5.339,1.2,14.317,14.317,0,0,1,2.084,1.227l-1.659,5.667a12.837,12.837,0,0,0-1.536-1.071,7.187,7.187,0,0,0-3.534-1.071,2.449,2.449,0,0,0-1.915.84,2.2,2.2,0,0,0-.614,1.487q0,1.417,2.655,2.257a22.87,22.87,0,0,1,4.921,1.956A6.368,6.368,0,0,1,668.809,539.731Z" transform="translate(-650.66 -482.75)" fill="#6802af"/>
        <path id="Path_19" data-name="Path 19" d="M750.586,531.888a9.767,9.767,0,0,1-1.991,6.452,6.57,6.57,0,0,1-5.31,2.395h-4.424v8.772H731.72V522.77h10.423a7.932,7.932,0,0,1,6.136,2.51A9.382,9.382,0,0,1,750.586,531.888Zm-6.7,0a3.239,3.239,0,0,0-.614-2.146,2.994,2.994,0,0,0-2.393-.844h-2.018v6.169h2.154a2.652,2.652,0,0,0,2.323-.959A3.816,3.816,0,0,0,743.886,531.888Z" transform="translate(-708.975 -483.485)" fill="#6802af"/>
        <path id="Path_20" data-name="Path 20" d="M830.658,549.505h-7.726l-1.195-4.979h-6.392l-1.231,4.979H806.39L814.8,522.77h7.483Zm-9.843-10.493-2.257-9.958-2.256,9.958Z" transform="translate(-763.12 -483.485)" fill="#6802af"/>
        <path id="Path_21" data-name="Path 21" d="M915.9,539.725a9.268,9.268,0,0,1-2.784,6.834,9.416,9.416,0,0,1-6.922,2.778,12.608,12.608,0,0,1-6.119-1.606,17.806,17.806,0,0,1-2.323-1.647l2.154-6.28a15.147,15.147,0,0,0,1.812,1.569,7.15,7.15,0,0,0,4.082,1.566,2.579,2.579,0,0,0,2.014-.744,2.514,2.514,0,0,0,.684-1.8q0-1.528-2.6-2.3a21.063,21.063,0,0,1-4.819-1.837q-2.632-1.859-2.632-5.86a8.449,8.449,0,0,1,2.462-6.05,8.688,8.688,0,0,1,6.561-2.759,12.746,12.746,0,0,1,5.333,1.186A14.136,14.136,0,0,1,914.887,524l-1.659,5.667a12.834,12.834,0,0,0-1.54-1.071,7.179,7.179,0,0,0-3.521-1.071,2.452,2.452,0,0,0-1.915.84,2.211,2.211,0,0,0-.614,1.487q0,1.417,2.655,2.257a22.969,22.969,0,0,1,4.925,1.956A6.422,6.422,0,0,1,915.9,539.725Z" transform="translate(-828.335 -482.744)" fill="#6802af"/>
        <path id="Path_22" data-name="Path 22" d="M995.466,543.378l-1.606,6.128H978.81V522.77H995.4l-1.47,6.128h-7.964v4.213h7.281v5.9h-7.281v4.365Z" transform="translate(-886.394 -483.485)" fill="#6802af"/>
      </g>
    </g>
  </g>
</svg>
