<svg xmlns="http://www.w3.org/2000/svg" xmlns:xlink="http://www.w3.org/1999/xlink" width="839.525" height="839.525" viewBox="0 0 839.525 839.525">
  <defs>
    <linearGradient id="linear-gradient" x1="0.5" x2="0.5" y2="1" gradientUnits="objectBoundingBox">
      <stop offset="0" stop-color="#fff"/>
      <stop offset="0.339" stop-color="#979797"/>
      <stop offset="1" stop-color="gray"/>
    </linearGradient>
  </defs>
  <g id="noun-rocket-15691" transform="translate(-0.591 157.602) rotate(-13)">
    <g id="Group_164" data-name="Group 164" transform="translate(0.607 0)">
      <g id="Group_163" data-name="Group 163">
        <path id="Path_80" data-name="Path 80" d="M651.5,8.54c13.964-4.1,28.236-7.707,42.824-8.5a21.436,21.436,0,0,1,5.559.28c.736,4.368-.315,8.743-.421,13.111C695.4,42.342,684.952,70.02,671.57,95.863c-15.317,29.28-34.735,56.293-56.585,81.058-14.644,16.723-30.55,32.276-46.736,47.508a967.825,967.825,0,0,1-79.613,67.213c-5.566,4.361-11.531,8.232-16.971,12.74-1.4,4.13-.953,8.659-1.816,12.922-1.43,11.179-3.07,22.33-4.339,33.543-10.312,8.9-21.493,16.751-32.6,24.591-23.245,15.75-47.339,30.554-73.395,41.236a48.174,48.174,0,0,1-10.844,3.787c.049-1.183.981-2.03,1.584-2.961,5.678-8,11.013-16.226,15.913-24.724,5.019-9.625,10.627-19.4,12.008-30.344-5.776,2.31-11.111,5.915-17.139,7.637-39.4,41.572-80.531,81.506-122.22,120.776Q196.034,530.981,152,570.138q-36.312,32.308-73.684,64.176C52.55,656.552,26.164,678.062.143,700c.007-1.442,1.15-2.394,1.942-3.451q68.243-82.938,140.053-162.873C202.684,466.59,264.792,400.84,330.3,338.576l.3-.455c-1.171-2.639,1.3-4.921,2.208-7.245,1.2-2.849,3.54-5.341,3.891-8.456-3.68-.056-7.1,1.666-10.585,2.667-16.333,6.335-30.956,16.226-45.292,26.1l-.883.154c-.372-1.456.407-2.835.862-4.158,11.973-30.631,29.288-58.883,48.173-85.713,6.386-8.96,12.99-17.78,19.979-26.284,14.847-2.422,29.94-3.885,44.892-5.936,1.122-.175,2.51-.287,3.155-1.386a984.577,984.577,0,0,1,68.221-85.125c18.009-19.838,36.6-39.178,56.669-56.944C559.8,52.443,603.11,24.065,651.5,8.54ZM584.856,46.234A457.2,457.2,0,0,0,500.5,114.245c-1.865,1.323-1.15,3.794-.617,5.607,2.552,8.064,6.9,15.442,11.672,22.393l1.248.056a1174.63,1174.63,0,0,1,97.1-83.9c-1.724-3.647-4.935-6.587-7-10.136-2.1-2.835-3.463-6.174-5.825-8.813C592.665,40.942,588.943,44.015,584.856,46.234ZM641.791,90.4c-25.453,33.543-53.374,65.155-82.4,95.632-.54.763-1.83,1.435-1.528,2.513,7.185,4.907,14.784,9.415,23.231,11.781,1.108.147,2.643.924,3.547-.119,25.089-24.527,47.773-51.6,66.6-81.233,3.169-5.243,6.835-10.4,9.393-15.9a171.7,171.7,0,0,1-18.31-12.747Zm-139.24,70.258c-25.173,24.766-49.021,50.812-72.315,77.327-.4,1.295,1.051,2.233,1.654,3.241,8.826,10.227,18.31,20,29.036,28.265.294.077.876.224,1.178.294q43.227-37.463,83.517-78.132c.687-.9,1.893-1.6,1.97-2.842-6.33-5.768-13.172-11.039-19.074-17.311-6.3-5.887-11.574-12.775-17.315-19.124C507.991,154.732,505.481,157.952,502.551,160.661Zm-94.306,61.795c-25.818,35.685-49.988,72.673-70.339,111.76-1.605,2.086,1.248,3.549,2.411,4.942.617.994,2.117,1.365,2.685.084,24.437-33.767,50.03-66.709,77.082-98.439.736-.994,2.425-2.345,1.1-3.591-4.136-5.236-7.466-11.032-10.866-16.737C409.227,220.37,408.946,221.854,408.245,222.456Zm52.6,56.209c-32.569,27.8-66.469,54.018-101.183,79.119.519,1.89,2.517,3.052,3.87,4.41,1.409.049,2.65-.728,3.9-1.288,39.852-19.852,77.447-44.05,112.98-70.8.035-1.141-1.535-1.26-2.208-1.876-5.7-2.723-10.732-6.6-16.046-9.933C461.823,278.391,461.178,278.573,460.842,278.664ZM333.147,341.285c-10.3,9.429-20.168,19.292-30,29.2-46.967,48.257-90.093,100.224-130.064,154.354l-.2.637c7.08-4.662,13.789-10.157,20.659-15.232,53.858-41.026,105.641-84.978,152.959-133.424,3.477-4.053,7.676-7.483,10.76-11.83-1.858-2.751-4.6-5.789-7.578-7.091-10.585,8.554-21.535,16.646-32.386,24.871-1.738.882-2.9,2.961-4.788,3.346.133-.308.372-.924.5-1.239,9.1-11.228,17.925-22.68,26.947-33.97.715-.812,1.556-1.911.806-2.989-1.661-1.729-3.456-3.325-5.082-5.089C334.942,342.2,334.3,340.963,333.147,341.285Z" transform="translate(-0.143 0)" fill="url(#linear-gradient)"/>
      </g>
    </g>
  </g>
</svg>
